<?xml version="1.0" standalone="no"?>
<!DOCTYPE svg PUBLIC "-//W3C//DTD SVG 20010904//EN"
 "http://www.w3.org/TR/2001/REC-SVG-20010904/DTD/svg10.dtd">
<svg version="1.0" xmlns="http://www.w3.org/2000/svg"
 width="1280.000000pt" height="685.000000pt" viewBox="0 0 1280.000000 685.000000"
 preserveAspectRatio="xMidYMid meet">
<metadata>
Created by potrace 1.16, written by Peter Selinger 2001-2019
</metadata>
<g transform="translate(0.000000,685.000000) scale(0.100000,-0.100000)"
fill="#000000" stroke="none">
<path d="M1728 6717 c-81 -21 -107 -32 -97 -40 2 -2 1002 -853 2223 -1891
1220 -1039 2239 -1904 2265 -1924 150 -115 326 -131 484 -44 48 26 716 590
2310 1946 1233 1050 2242 1914 2242 1920 0 5 -27 19 -60 31 l-60 20 -4610 2
-4610 2 -87 -22z"/>
<path d="M1150 3423 c0 -2889 -3 -2724 53 -2863 41 -101 88 -171 172 -255 113
-113 232 -179 383 -210 101 -22 9183 -22 9284 0 151 31 270 97 383 210 84 84
131 154 172 255 56 139 53 -26 53 2863 0 1467 -2 2667 -5 2667 -3 0 -1010
-854 -2237 -1897 -1227 -1044 -2260 -1920 -2296 -1946 -86 -63 -242 -140 -345
-172 -363 -110 -754 -53 -1058 152 -41 28 -1081 908 -2311 1957 -1230 1048
-2240 1906 -2243 1906 -3 0 -5 -1200 -5 -2667z"/>
</g>
</svg>
